<svg id="Group_18" data-name="Group 18" xmlns="http://www.w3.org/2000/svg" width="120" height="120" viewBox="0 0 120 120">
  <circle id="Ellipse_2" data-name="Ellipse 2" cx="60" cy="60" r="60" fill="#666a9a"/>
  <path id="Path_1" data-name="Path 1" d="M30.551,12.221a1.532,1.532,0,0,1,1.528,1.528v1.528h1.528a1.528,1.528,0,1,1,0,3.055H30.551A1.532,1.532,0,0,1,29.024,16.8V13.748A1.532,1.532,0,0,1,30.551,12.221Zm14.97-2.858,11.991,2.582A4.745,4.745,0,0,1,61.1,16.5V44.3a4.584,4.584,0,0,1-4.583,4.583H4.583A4.583,4.583,0,0,1,0,44.3V16.5a4.749,4.749,0,0,1,3.589-4.554L15.581,9.362,28.852.513a3.07,3.07,0,0,1,3.4,0Zm-21.08,39.52h12.22V39.717a6.11,6.11,0,0,0-12.22,0ZM9.165,18.331a1.53,1.53,0,0,0-1.528,1.528v6.11A1.53,1.53,0,0,0,9.165,27.5H12.22a1.532,1.532,0,0,0,1.528-1.528v-6.11a1.532,1.532,0,0,0-1.528-1.528Zm38.189,7.638A1.532,1.532,0,0,0,48.882,27.5h3.055a1.532,1.532,0,0,0,1.528-1.528v-6.11a1.532,1.532,0,0,0-1.528-1.528H48.882a1.532,1.532,0,0,0-1.528,1.528ZM9.165,30.551a1.53,1.53,0,0,0-1.528,1.528v6.11a1.53,1.53,0,0,0,1.528,1.528H12.22a1.532,1.532,0,0,0,1.528-1.528v-6.11a1.532,1.532,0,0,0-1.528-1.528Zm38.189,7.638a1.532,1.532,0,0,0,1.528,1.528h3.055a1.532,1.532,0,0,0,1.528-1.528v-6.11a1.532,1.532,0,0,0-1.528-1.528H48.882a1.532,1.532,0,0,0-1.528,1.528ZM30.551,8.4a8.4,8.4,0,1,0,8.4,8.4A8.4,8.4,0,0,0,30.551,8.4Z" transform="translate(30.215 36.325)" fill="#fff"/>
</svg>
