<svg id="Group_17" data-name="Group 17" xmlns="http://www.w3.org/2000/svg" width="120" height="120" viewBox="0 0 120 120">
  <circle id="Ellipse_2" data-name="Ellipse 2" cx="60" cy="60" r="60" fill="#666a9a"/>
  <path id="Path_2" data-name="Path 2" d="M35.079,35.188,24.6,45.666,14.124,35.188A14.728,14.728,0,0,0,0,49.883v1.054a5.273,5.273,0,0,0,5.272,5.272H43.931A5.273,5.273,0,0,0,49.2,50.938V49.883A14.728,14.728,0,0,0,35.079,35.188ZM1.494,8.742l.7.165v6.414a2.537,2.537,0,0,0-.1,4.393L.384,26.556c-.187.758.231,1.538.835,1.538H5.81c.6,0,1.021-.78.835-1.538L4.931,19.714a2.537,2.537,0,0,0-.1-4.393V9.544l7.249,1.746a14.032,14.032,0,1,0,26.578,6.26,13.807,13.807,0,0,0-1.538-6.26L47.7,8.742a1.748,1.748,0,0,0,0-3.46L26.787.23a9.434,9.434,0,0,0-4.36,0L1.494,5.271A1.755,1.755,0,0,0,1.494,8.742Z" transform="translate(36.153 32.663)" fill="#fff"/>
</svg>
